<svg width="20" height="20" viewBox="0 0 20 20" fill="none" xmlns="http://www.w3.org/2000/svg">
<path d="M14.5161 17.8065H5.48387C4.82511 17.8065 4.19332 17.5448 3.72751 17.0789C3.26169 16.6131 3 15.9813 3 15.3226V4.48387C3 3.82511 3.26169 3.19332 3.72751 2.72751C4.19332 2.26169 4.82511 2 5.48387 2H12.2581C12.4377 2.00016 12.6099 2.07163 12.7368 2.19871L16.8013 6.29032C16.9284 6.41724 16.9998 6.58943 17 6.76903V15.3226C17 15.9813 16.7383 16.6131 16.2725 17.0789C15.8067 17.5448 15.1749 17.8065 14.5161 17.8065ZM5.48387 3.35484C5.18443 3.35484 4.89726 3.47379 4.68552 3.68552C4.47379 3.89726 4.35484 4.18443 4.35484 4.48387V15.3226C4.35484 15.622 4.47379 15.9092 4.68552 16.1209C4.89726 16.3327 5.18443 16.4516 5.48387 16.4516H14.5161C14.8156 16.4516 15.1027 16.3327 15.3145 16.1209C15.5262 15.9092 15.6452 15.622 15.6452 15.3226V7.02194L11.9781 3.35484H5.48387Z" fill="#69B3FF"/>
<path d="M14.2902 17.1291H12.9353V11.4839H7.06435V17.1291H5.70951V11.2581C5.70951 10.9587 5.82846 10.6715 6.04019 10.4598C6.25193 10.2481 6.5391 10.1291 6.83854 10.1291H13.1611C13.4606 10.1291 13.7477 10.2481 13.9595 10.4598C14.1712 10.6715 14.2902 10.9587 14.2902 11.2581V17.1291ZM10.4243 6.96781H6.86564C6.71262 6.96663 6.56134 6.93532 6.42043 6.87567C6.27952 6.81602 6.15174 6.7292 6.04438 6.62017C5.93702 6.51113 5.85219 6.38202 5.79473 6.2402C5.73728 6.09838 5.70832 5.94663 5.70951 5.79362V2.67749H7.06435V5.61297H10.2256V2.67749H11.5805V5.79362C11.5817 5.94663 11.5527 6.09838 11.4952 6.2402C11.4378 6.38202 11.353 6.51113 11.2456 6.62017C11.1382 6.7292 11.0105 6.81602 10.8696 6.87567C10.7286 6.93532 10.5774 6.96663 10.4243 6.96781Z" fill="#69B3FF"/>
</svg>
